<?xml version="1.0" encoding="UTF-8" standalone="no"?>
<!DOCTYPE svg PUBLIC "-//W3C//DTD SVG 1.1//EN" "http://www.w3.org/Graphics/SVG/1.1/DTD/svg11.dtd">
<svg width="100%" height="100%" viewBox="0 0 100 74" version="1.1" xmlns="http://www.w3.org/2000/svg" xmlns:xlink="http://www.w3.org/1999/xlink" xml:space="preserve" style="fill-rule:evenodd;clip-rule:evenodd;stroke-linejoin:round;stroke-miterlimit:1.41421;">
    <g transform="matrix(1,0,0,1,0,-0.2)">
        <g transform="matrix(1.56075,0,0,1.5506,-28.0374,-40.4258)">
            <g>
                <g>
                    <path d="M79.1,73.8L20.9,73.8C19.2,73.8 17.9,72.5 17.9,70.8L17.9,29.2C17.9,27.5 19.2,26.2 20.9,26.2L79.1,26.2C80.8,26.2 82.1,27.5 82.1,29.2L82.1,70.9C82.1,72.5 80.8,73.8 79.1,73.8ZM20.9,28.2C20.3,28.2 19.9,28.6 19.9,29.2L19.9,70.9C19.9,71.5 20.3,71.9 20.9,71.9L79.1,71.9C79.7,71.9 80.1,71.5 80.1,70.9L80.1,29.2C80.1,28.6 79.7,28.2 79.1,28.2L20.9,28.2Z" style="fill-rule:nonzero;"/>
                    <path d="M65.8,67.2C65.5,67.2 65.3,67.1 65.1,66.9L44.6,46.5L26.1,64.9C25.7,65.3 25.1,65.3 24.7,64.9C24.3,64.5 24.3,63.9 24.7,63.5L43.9,44.3C44.3,43.9 44.9,43.9 45.3,44.3L66.5,65.5C66.9,65.9 66.9,66.5 66.5,66.9C66.3,67.1 66,67.2 65.8,67.2Z" style="fill-rule:nonzero;"/>
                    <path d="M74.4,64.1C74.1,64.1 73.9,64 73.7,63.8L65.6,55.7L60.4,60.9C60,61.3 59.4,61.3 59,60.9C58.6,60.5 58.6,59.9 59,59.5L64.9,53.6C65.3,53.2 65.9,53.2 66.3,53.6L75.1,62.4C75.5,62.8 75.5,63.4 75.1,63.8C75,64 74.7,64.1 74.4,64.1Z" style="fill-rule:nonzero;"/>
                    <path d="M62.5,41.9C59.7,41.9 57.5,39.6 57.5,36.9C57.5,34.2 59.8,31.9 62.5,31.9C65.2,31.9 67.5,34.2 67.5,36.9C67.5,39.6 65.3,41.9 62.5,41.9ZM62.5,33.9C60.8,33.9 59.5,35.3 59.5,36.9C59.5,38.6 60.9,39.9 62.5,39.9C64.1,39.9 65.5,38.5 65.5,36.9C65.5,35.2 64.2,33.9 62.5,33.9Z" style="fill-rule:nonzero;"/>
                </g>
            </g>
        </g>
    </g>
</svg>
