<?xml version="1.0" encoding="UTF-8" standalone="no"?>
<!DOCTYPE svg PUBLIC "-//W3C//DTD SVG 1.1//EN" "http://www.w3.org/Graphics/SVG/1.1/DTD/svg11.dtd">
<svg width="100%" height="100%" viewBox="0 0 96 26" version="1.1" xmlns="http://www.w3.org/2000/svg" xmlns:xlink="http://www.w3.org/1999/xlink" xml:space="preserve" style="fill-rule:evenodd;clip-rule:evenodd;stroke-linejoin:round;stroke-miterlimit:1.41421;">
    <g transform="matrix(1,0,0,1,-2.001,-2.13402)">
        <g>
            <g transform="matrix(0.204678,0,0,0.204678,0.977403,3.15769)">
                <path d="M93.494,86.224L68.831,61.561C79.16,47.692 78.073,27.947 65.491,15.365C51.671,1.545 29.186,1.545 15.366,15.365C1.546,29.185 1.546,51.67 15.366,65.49C27.948,78.072 47.693,79.159 61.562,68.83L86.226,93.494C88.234,95.502 91.488,95.502 93.496,93.494C95.504,91.486 95.502,88.232 93.494,86.224ZM20.211,60.644C9.064,49.497 9.064,31.359 20.211,20.212C31.358,9.065 49.496,9.065 60.643,20.212C71.79,31.359 71.79,49.497 60.643,60.644C49.496,71.791 31.358,71.791 20.211,60.644Z" style="fill:white;fill-rule:nonzero;"/>
            </g>
            <g transform="matrix(2.04678,0,0,2.04678,-22.5604,-40.6677)">
                <g transform="matrix(1,0,0,1,21,30.74)">
                    <text x="0px" y="0px" style="font-family:'Orbitron-Regular', 'Orbitron';font-size:12px;">i</text>
                </g>
                <g transform="matrix(1,0,0,1,23.316,30.74)">
                    <text x="0px" y="0px" style="font-family:'Orbitron-Regular', 'Orbitron';font-size:12px;">ng</text>
                </g>
            </g>
            <g transform="matrix(2.04678,0,0,2.04678,59.0326,22.2505)">
                <text x="0px" y="0px" style="font-family:'Orbitron-Regular', 'Orbitron';font-size:12px;fill:rgb(145,0,116);">M</text>
            </g>
            <g transform="matrix(2.04678,0,0,2.04678,-22.5604,-40.6677)">
                <g transform="matrix(1,0,0,1,51,30.74)">
                    <text x="0px" y="0px" style="font-family:'Orbitron-Regular', 'Orbitron';font-size:5px;">li</text>
                </g>
                <g transform="matrix(1,0,0,1,53.315,30.74)">
                    <text x="0px" y="0px" style="font-family:'Orbitron-Regular', 'Orbitron';font-size:5px;">fe</text>
                </g>
            </g>
            <g transform="matrix(2.04678,0,0,2.04678,67.4961,9.5846)">
                <text x="0px" y="0px" style="font-family:'ArialRoundedMTBold', 'Arial Rounded MT Bold', sans-serif;font-size:5px;fill:rgb(145,0,116);">Y</text>
            </g>
        </g>
    </g>
</svg>
