<svg xmlns="http://www.w3.org/2000/svg" xmlns:xlink="http://www.w3.org/1999/xlink" version="1.1" x="0px" y="0px" viewBox="0 0 100 125" enable-background="new 0 0 100 100" xml:space="preserve"><g><path d="M34.795,21.47c-3.911,0-7.096,3.201-7.096,7.132v8.592c0,0.421,0.363,0.814,0.782,0.814s0.81-0.393,0.782-0.814v-8.592   c0-3.089,2.458-5.56,5.532-5.56h15.086v53.885H39.741c-0.028,0-0.084,0-0.14,0c-0.419,0.057-0.754,0.478-0.726,0.87   c0.056,0.422,0.447,0.759,0.866,0.73h21.82c0.419,0,0.782-0.365,0.782-0.786s-0.363-0.814-0.782-0.814H51.446V23.042h15.059   c3.073,0,5.532,2.471,5.532,5.56v8.592c-0.028,0.421,0.363,0.814,0.782,0.814s0.782-0.393,0.782-0.814v-8.592   c0-3.931-3.186-7.132-7.097-7.132H34.795L34.795,21.47z"/></g><text x="0" y="115" fill="#000000" font-size="5px" font-weight="bold" font-family="'Helvetica Neue', Helvetica, Arial-Unicode, Arial, Sans-serif">Created by artworkbean</text><text x="0" y="120" fill="#000000" font-size="5px" font-weight="bold" font-family="'Helvetica Neue', Helvetica, Arial-Unicode, Arial, Sans-serif">from the Noun Project</text></svg>