<svg xmlns="http://www.w3.org/2000/svg" xmlns:xlink="http://www.w3.org/1999/xlink" version="1.1" x="0px" y="0px" viewBox="0 0 100 125" style="enable-background:new 0 0 100 100;" xml:space="preserve"><g><path d="M79.1,73.8H20.9c-1.7,0-3-1.3-3-3V29.2c0-1.7,1.3-3,3-3h58.2c1.7,0,3,1.3,3,3v41.7C82.1,72.5,80.8,73.8,79.1,73.8z    M20.9,28.2c-0.6,0-1,0.4-1,1v41.7c0,0.6,0.4,1,1,1h58.2c0.6,0,1-0.4,1-1V29.2c0-0.6-0.4-1-1-1H20.9z"/><path d="M65.8,67.2c-0.3,0-0.5-0.1-0.7-0.3L44.6,46.5L26.1,64.9c-0.4,0.4-1,0.4-1.4,0s-0.4-1,0-1.4l19.2-19.2c0.4-0.4,1-0.4,1.4,0   l21.2,21.2c0.4,0.4,0.4,1,0,1.4C66.3,67.1,66,67.2,65.8,67.2z"/><path d="M74.4,64.1c-0.3,0-0.5-0.1-0.7-0.3l-8.1-8.1l-5.2,5.2c-0.4,0.4-1,0.4-1.4,0s-0.4-1,0-1.4l5.9-5.9c0.4-0.4,1-0.4,1.4,0   l8.8,8.8c0.4,0.4,0.4,1,0,1.4C75,64,74.7,64.1,74.4,64.1z"/><path d="M62.5,41.9c-2.8,0-5-2.3-5-5s2.3-5,5-5s5,2.3,5,5S65.3,41.9,62.5,41.9z M62.5,33.9c-1.7,0-3,1.4-3,3c0,1.7,1.4,3,3,3   s3-1.4,3-3C65.5,35.2,64.2,33.9,62.5,33.9z"/></g><text x="0" y="115" fill="#000000" font-size="5px" font-weight="bold" font-family="'Helvetica Neue', Helvetica, Arial-Unicode, Arial, Sans-serif">Created by KΛPKLΛM</text><text x="0" y="120" fill="#000000" font-size="5px" font-weight="bold" font-family="'Helvetica Neue', Helvetica, Arial-Unicode, Arial, Sans-serif">from the Noun Project</text></svg>