<?xml version="1.0" encoding="UTF-8" standalone="no"?>
<!DOCTYPE svg PUBLIC "-//W3C//DTD SVG 1.1//EN" "http://www.w3.org/Graphics/SVG/1.1/DTD/svg11.dtd">
<svg width="100%" height="100%" viewBox="0 0 100 125" version="1.1" xmlns="http://www.w3.org/2000/svg" xmlns:xlink="http://www.w3.org/1999/xlink" xml:space="preserve" style="fill-rule:evenodd;clip-rule:evenodd;stroke-linejoin:round;stroke-miterlimit:1.41421;">
    <g transform="matrix(2.1567,0,0,2.17423,-59.3021,-46.2107)">
        <path d="M34.795,21.47C30.884,21.47 27.699,24.671 27.699,28.602L27.699,37.194C27.699,37.615 28.062,38.008 28.481,38.008C28.9,38.008 29.291,37.615 29.263,37.194L29.263,28.602C29.263,25.513 31.721,23.042 34.795,23.042L49.881,23.042L49.881,76.927L39.741,76.927C39.713,76.927 39.657,76.927 39.601,76.927C39.182,76.984 38.847,77.405 38.875,77.797C38.931,78.219 39.322,78.556 39.741,78.527L61.561,78.527C61.98,78.527 62.343,78.162 62.343,77.741C62.343,77.32 61.98,76.927 61.561,76.927L51.446,76.927L51.446,23.042L66.505,23.042C69.578,23.042 72.037,25.513 72.037,28.602L72.037,37.194C72.009,37.615 72.4,38.008 72.819,38.008C73.238,38.008 73.601,37.615 73.601,37.194L73.601,28.602C73.601,24.671 70.415,21.47 66.504,21.47L34.795,21.47L34.795,21.47Z" style="fill-rule:nonzero;"/>
    </g>
</svg>
